# xmcd
#
# Track frame offsets: 
#        150
#        18759
#        38568
#        58414
#        77185
#        93726
#        111694
#        127551
#        145082
#        162448
#        180620
#        198542
#
# Disc length: 2870 seconds
#
# Revision: 0
# Processed by: cddbd v1.5.2PL0 Copyright (c) Steve Scherf et al.
# Submitted via: ExactAudioCopy v0.99pb4
#
DISCID=a30b340c
DTITLE=พิณแคนแดนอิสาน - รวมก๊วนสุดสวย
DYEAR=2008
DGENRE=Country
TTITLE0=สาวโชคชั'
TTITLE1=มารับผิดชอบใจเลย
TTITLE2=ตั้งใจมาตั๋ว
TTITLE3=เสียน้ำตาที่ผาแต้ม
TTITLE4=แฟนตอนปิดไฟ
TTITLE5=คนไม่รักดี
TTITLE6=มอมผัวมั่วหน้าฮ้าน
TTITLE7=ดีใจจังได้เป็นนางสาว
TTITLE8=ลืมอ้ายบ่ได้อีหลี
TTITLE9=ขอสะอื้นในแขนอ้าย
TTITLE10=มีหน้ามาคืนดี
TTITLE11=ชายใจดำ
EXTD=
EXTT0=
EXTT1=
EXTT2=
EXTT3=
EXTT4=
EXTT5=
EXTT6=
EXTT7=
EXTT8=
EXTT9=
EXTT10=
EXTT11=
PLAYORDER=
